<svg width="32" height="32" viewBox="0 0 32 32" fill="none" xmlns="http://www.w3.org/2000/svg">
<g id="vuesax/bold/note-2">
<path id="Vector" d="M16.9036 26.6093C17.2699 26.6945 17.3034 27.1743 16.9466 27.2932L14.84 27.9866C9.54663 29.6932 6.75997 28.2666 5.03997 22.9732L3.3333 17.7066C1.62663 12.4132 3.03997 9.61323 8.3333 7.90656L9.37063 7.56303C9.77349 7.42961 10.1612 7.832 10.0388 8.23834C9.92673 8.6103 9.82162 9.00638 9.71997 9.42656L8.4133 15.0132C6.94663 21.2932 9.0933 24.7599 15.3733 26.2532L16.9036 26.6093Z" fill="#DADCE5"/>
<path id="Vector_2" d="M22.8933 4.27993L20.6666 3.75993C16.2133 2.7066 13.56 3.57326 12 6.79993C11.6 7.61326 11.28 8.59993 11.0133 9.73326L9.70662 15.3199C8.39995 20.8933 10.12 23.6399 15.68 24.9599L17.92 25.4933C18.6933 25.6799 19.4133 25.7999 20.08 25.8533C24.24 26.2533 26.4533 24.3066 27.5733 19.4933L28.88 13.9199C30.1866 8.3466 28.48 5.5866 22.8933 4.27993ZM20.3866 17.7733C20.2666 18.2266 19.8666 18.5199 19.4133 18.5199C19.3333 18.5199 19.2533 18.5066 19.16 18.4933L15.28 17.5066C14.7466 17.3733 14.4266 16.8266 14.56 16.2933C14.6933 15.7599 15.24 15.4399 15.7733 15.5733L19.6533 16.5599C20.2 16.6933 20.52 17.2399 20.3866 17.7733ZM24.2933 13.2666C24.1733 13.7199 23.7733 14.0133 23.32 14.0133C23.24 14.0133 23.16 13.9999 23.0666 13.9866L16.6 12.3466C16.0666 12.2133 15.7466 11.6666 15.88 11.1333C16.0133 10.5999 16.56 10.2799 17.0933 10.4133L23.56 12.0533C24.1066 12.1733 24.4266 12.7199 24.2933 13.2666Z" fill="#DADCE5"/>
</g>
</svg>
